<svg xmlns="http://www.w3.org/2000/svg" xmlns:xlink="http://www.w3.org/1999/xlink" width="720" zoomAndPan="magnify" viewBox="0 0 540 149.999998" height="200" preserveAspectRatio="xMidYMid meet" version="1.0"><defs><g/><clipPath id="e5fb8afc22"><path d="M 22.566406 9 L 100 9 L 100 130 L 22.566406 130 Z M 22.566406 9 " clip-rule="nonzero"/></clipPath><clipPath id="7d42c13310"><path d="M 55 58 L 133 58 L 133 140.863281 L 55 140.863281 Z M 55 58 " clip-rule="nonzero"/></clipPath><clipPath id="6d9e88f73a"><path d="M 103.5625 8.96875 L 133.171875 8.96875 L 133.171875 68.1875 L 103.5625 68.1875 Z M 103.5625 8.96875 " clip-rule="nonzero"/></clipPath><clipPath id="a6321b5f1b"><path d="M 95 68 L 134 68 L 134 108 L 95 108 Z M 95 68 " clip-rule="nonzero"/></clipPath><clipPath id="efe30db894"><path d="M 128.046875 64.4375 L 137.234375 101.78125 L 99.894531 110.964844 L 90.707031 73.625 Z M 128.046875 64.4375 " clip-rule="nonzero"/></clipPath><clipPath id="45a0204032"><path d="M 128.046875 64.4375 L 137.234375 101.78125 L 99.894531 110.964844 L 90.707031 73.625 Z M 128.046875 64.4375 " clip-rule="nonzero"/></clipPath></defs><g fill="#545454" fill-opacity="1"><g transform="translate(162.905767, 89.378865)"><g><path d="M 32.1875 0.203125 C 30.21875 0.648438 27.945312 0.875 25.375 0.875 C 22.8125 0.875 20.097656 0.316406 17.234375 -0.796875 C 14.367188 -1.921875 11.875 -3.5 9.75 -5.53125 C 5.164062 -9.90625 2.875 -15.503906 2.875 -22.328125 C 2.875 -29.242188 5.09375 -35.113281 9.53125 -39.9375 C 14.207031 -44.976562 20.171875 -47.5 27.421875 -47.5 C 34.003906 -47.5 39.472656 -45.421875 43.828125 -41.265625 C 48.429688 -36.816406 50.734375 -30.992188 50.734375 -23.796875 C 50.734375 -18.023438 49.09375 -12.976562 45.8125 -8.65625 C 44.789062 -7.300781 43.648438 -6.085938 42.390625 -5.015625 C 43.222656 -4.773438 44.238281 -4.390625 45.4375 -3.859375 C 47.976562 -2.660156 50.382812 -2.039062 52.65625 -2 L 53.359375 -2 C 54.578125 -2 55.382812 -2.160156 55.78125 -2.484375 L 55.921875 -2.390625 L 53.25 4.3125 C 52.925781 5.3125 52.304688 5.8125 51.390625 5.8125 C 50.054688 5.8125 48.703125 5.53125 47.328125 4.96875 C 45.953125 4.414062 44.71875 3.894531 43.625 3.40625 C 42.539062 2.914062 41.503906 2.484375 40.515625 2.109375 C 39.535156 1.734375 38.601562 1.414062 37.71875 1.15625 C 36.195312 0.738281 34.351562 0.421875 32.1875 0.203125 Z M 12.265625 -22.71875 C 12.265625 -20.539062 12.644531 -18.519531 13.40625 -16.65625 C 14.164062 -14.800781 15.210938 -13.195312 16.546875 -11.84375 C 19.398438 -8.96875 22.976562 -7.53125 27.28125 -7.53125 C 31.382812 -7.53125 34.734375 -8.921875 37.328125 -11.703125 C 40.023438 -14.554688 41.375 -18.332031 41.375 -23.03125 C 41.375 -27.46875 40.109375 -31.171875 37.578125 -34.140625 C 34.847656 -37.316406 31.226562 -38.90625 26.71875 -38.90625 C 22.320312 -38.90625 18.769531 -37.296875 16.0625 -34.078125 C 13.53125 -31.035156 12.265625 -27.25 12.265625 -22.71875 Z M 12.265625 -22.71875 "/></g></g></g><g fill="#545454" fill-opacity="1"><g transform="translate(216.711466, 89.378865)"><g><path d="M 27.09375 -3.1875 C 24.101562 -0.707031 20.84375 0.53125 17.3125 0.53125 C 13.53125 0.53125 10.5625 -0.742188 8.40625 -3.296875 C 6.351562 -5.773438 5.328125 -9.175781 5.328125 -13.5 L 5.328125 -27.421875 C 5.328125 -32.085938 5.226562 -34.765625 5.03125 -35.453125 C 4.832031 -36.148438 4.6875 -36.59375 4.59375 -36.78125 C 5.664062 -36.6875 6.785156 -36.640625 7.953125 -36.640625 L 10.875 -36.640625 C 11.644531 -36.640625 12.660156 -36.671875 13.921875 -36.734375 L 13.921875 -16.4375 C 13.921875 -11.625 15.226562 -8.832031 17.84375 -8.0625 C 18.632812 -7.832031 19.5 -7.71875 20.4375 -7.71875 C 23.195312 -7.71875 25.414062 -8.722656 27.09375 -10.734375 L 27.09375 -36.640625 L 35.796875 -36.640625 L 35.796875 -4.484375 C 35.796875 -2.429688 35.890625 -0.9375 36.078125 0 L 27.09375 0 Z M 27.09375 -3.1875 "/></g></g></g><g fill="#545454" fill-opacity="1"><g transform="translate(258.529189, 89.378865)"><g><path d="M 4.03125 -47.078125 C 5.90625 -50.003906 7.859375 -52.578125 9.890625 -54.796875 L 17.421875 -48.875 C 16.421875 -47.632812 15.488281 -46.414062 14.625 -45.21875 C 14.625 -45.21875 13.722656 -43.945312 11.921875 -41.40625 Z M 13.25 -3.921875 C 13.25 -1.910156 13.296875 -0.601562 13.390625 0 L 4.484375 0 L 4.484375 -36.640625 L 13.25 -36.640625 Z M 13.25 -3.921875 "/></g></g></g><g fill="#545454" fill-opacity="1"><g transform="translate(276.511167, 89.378865)"><g><path d="M 33.796875 -3.40625 C 31.179688 -0.78125 27.078125 0.53125 21.484375 0.53125 C 16.066406 0.53125 11.640625 -1.117188 8.203125 -4.421875 C 4.722656 -7.765625 2.984375 -12.203125 2.984375 -17.734375 C 2.984375 -23.367188 4.703125 -28 8.140625 -31.625 C 11.785156 -35.425781 16.65625 -37.328125 22.75 -37.328125 C 27.070312 -37.328125 30.695312 -36.382812 33.625 -34.5 L 32.21875 -25.515625 L 31.96875 -25.5625 C 30.851562 -26.914062 29.675781 -27.800781 28.4375 -28.21875 C 26.425781 -28.914062 24.414062 -29.265625 22.40625 -29.265625 C 20.394531 -29.265625 18.816406 -29.007812 17.671875 -28.5 C 16.523438 -27.988281 15.539062 -27.273438 14.71875 -26.359375 C 13.082031 -24.492188 12.265625 -22.019531 12.265625 -18.9375 C 12.265625 -13.46875 14.160156 -9.890625 17.953125 -8.203125 C 19.253906 -7.640625 20.632812 -7.359375 22.09375 -7.359375 C 23.5625 -7.359375 24.835938 -7.488281 25.921875 -7.75 C 27.015625 -8.007812 28.003906 -8.359375 28.890625 -8.796875 C 30.785156 -9.734375 32.070312 -10.820312 32.75 -12.0625 L 32.984375 -11.953125 Z M 33.796875 -3.40625 "/></g></g></g><g fill="#545454" fill-opacity="1"><g transform="translate(312.475099, 89.378865)"><g><path d="M 14.265625 -4.625 C 14.265625 -2.613281 14.347656 -1.070312 14.515625 0 L 5.671875 0 L 5.671875 -50.125 L 14.265625 -50.125 L 14.265625 -19.421875 L 30.296875 -36.640625 L 40.703125 -36.640625 L 26.890625 -22.09375 L 34.78125 -11.328125 C 36.476562 -8.609375 37.765625 -6.617188 38.640625 -5.359375 L 40.953125 -2.109375 C 41.648438 -1.191406 42.234375 -0.488281 42.703125 0 L 37.15625 0 C 35.101562 0 33.335938 0.175781 31.859375 0.53125 L 20.921875 -15.453125 L 14.265625 -8.375 Z M 14.265625 -4.625 "/></g></g></g><g fill="#545454" fill-opacity="1"><g transform="translate(354.313806, 89.378865)"><g><path d="M 9.4375 0.28125 C 7.425781 0.09375 5.078125 0 2.390625 0 L -0.390625 0 L 14.859375 -42.734375 C 15.535156 -44.648438 15.875 -45.765625 15.875 -46.078125 C 15.875 -46.398438 15.863281 -46.59375 15.84375 -46.65625 L 15.875 -46.734375 C 17.394531 -46.660156 19.007812 -46.625 20.71875 -46.625 C 22.125 -46.625 23.804688 -46.648438 25.765625 -46.703125 L 25.796875 -46.625 C 25.753906 -46.53125 25.734375 -46.398438 25.734375 -46.234375 C 25.734375 -45.796875 26.082031 -44.617188 26.78125 -42.703125 L 42.34375 0.109375 C 41.875 0.078125 41.328125 0.0625 40.703125 0.0625 C 40.703125 0.0625 40.09375 0.0390625 38.875 0 C 38.289062 0 37.765625 0 37.296875 0 L 31.859375 0 L 28.578125 -10.09375 L 12.71875 -10.09375 Z M 25.84375 -18.515625 L 20.546875 -34.8125 L 15.390625 -18.515625 Z M 25.84375 -18.515625 "/></g></g></g><g fill="#545454" fill-opacity="1"><g transform="translate(396.27174, 89.378865)"><g><path d="M 14.265625 -0.734375 L 14.265625 9.578125 C 14.265625 11.578125 14.3125 12.882812 14.40625 13.5 L 5.671875 13.5 L 5.671875 -36.640625 L 14.265625 -36.640625 L 14.265625 -34.359375 C 17.097656 -36.335938 19.8125 -37.328125 22.40625 -37.328125 C 25 -37.328125 27.300781 -36.960938 29.3125 -36.234375 C 31.320312 -35.515625 33.082031 -34.398438 34.59375 -32.890625 C 37.9375 -29.585938 39.609375 -24.890625 39.609375 -18.796875 C 39.609375 -14.742188 38.664062 -11.128906 36.78125 -7.953125 C 35.164062 -5.265625 32.929688 -3.113281 30.078125 -1.5 C 27.554688 -0.0820312 24.820312 0.625 21.875 0.625 C 18.925781 0.625 16.390625 0.171875 14.265625 -0.734375 Z M 14.265625 -9.578125 C 16.046875 -8.078125 18.347656 -7.328125 21.171875 -7.328125 C 25.796875 -7.328125 28.789062 -9.554688 30.15625 -14.015625 C 30.613281 -15.535156 30.84375 -17.164062 30.84375 -18.90625 C 30.84375 -20.65625 30.679688 -22.046875 30.359375 -23.078125 C 30.035156 -24.117188 29.609375 -25.019531 29.078125 -25.78125 C 28.554688 -26.539062 27.96875 -27.171875 27.3125 -27.671875 C 26.65625 -28.179688 25.988281 -28.585938 25.3125 -28.890625 C 24.113281 -29.421875 22.882812 -29.6875 21.625 -29.6875 C 20.363281 -29.6875 19.054688 -29.394531 17.703125 -28.8125 C 16.347656 -28.226562 15.203125 -27.445312 14.265625 -26.46875 Z M 14.265625 -9.578125 "/></g></g></g><g fill="#545454" fill-opacity="1"><g transform="translate(438.089463, 89.378865)"><g><path d="M 14.265625 -0.734375 L 14.265625 9.578125 C 14.265625 11.578125 14.3125 12.882812 14.40625 13.5 L 5.671875 13.5 L 5.671875 -36.640625 L 14.265625 -36.640625 L 14.265625 -34.359375 C 17.097656 -36.335938 19.8125 -37.328125 22.40625 -37.328125 C 25 -37.328125 27.300781 -36.960938 29.3125 -36.234375 C 31.320312 -35.515625 33.082031 -34.398438 34.59375 -32.890625 C 37.9375 -29.585938 39.609375 -24.890625 39.609375 -18.796875 C 39.609375 -14.742188 38.664062 -11.128906 36.78125 -7.953125 C 35.164062 -5.265625 32.929688 -3.113281 30.078125 -1.5 C 27.554688 -0.0820312 24.820312 0.625 21.875 0.625 C 18.925781 0.625 16.390625 0.171875 14.265625 -0.734375 Z M 14.265625 -9.578125 C 16.046875 -8.078125 18.347656 -7.328125 21.171875 -7.328125 C 25.796875 -7.328125 28.789062 -9.554688 30.15625 -14.015625 C 30.613281 -15.535156 30.84375 -17.164062 30.84375 -18.90625 C 30.84375 -20.65625 30.679688 -22.046875 30.359375 -23.078125 C 30.035156 -24.117188 29.609375 -25.019531 29.078125 -25.78125 C 28.554688 -26.539062 27.96875 -27.171875 27.3125 -27.671875 C 26.65625 -28.179688 25.988281 -28.585938 25.3125 -28.890625 C 24.113281 -29.421875 22.882812 -29.6875 21.625 -29.6875 C 20.363281 -29.6875 19.054688 -29.394531 17.703125 -28.8125 C 16.347656 -28.226562 15.203125 -27.445312 14.265625 -26.46875 Z M 14.265625 -9.578125 "/></g></g></g><g fill="#545454" fill-opacity="1"><g transform="translate(479.907185, 89.378865)"><g><path d="M 17.5 0.53125 C 10.90625 0.53125 5.9375 -0.671875 2.59375 -3.078125 C 2.644531 -3.785156 2.710938 -4.582031 2.796875 -5.46875 L 3.125 -8 C 3.3125 -9.65625 3.425781 -10.6875 3.46875 -11.09375 C 3.519531 -11.5 3.554688 -11.71875 3.578125 -11.75 C 3.597656 -11.789062 3.78125 -11.609375 4.125 -11.203125 C 4.476562 -10.796875 5.144531 -10.296875 6.125 -9.703125 C 7.113281 -9.117188 8.25 -8.609375 9.53125 -8.171875 C 12.3125 -7.210938 15.210938 -6.734375 18.234375 -6.734375 C 22.273438 -6.734375 24.296875 -8.078125 24.296875 -10.765625 C 24.296875 -11.628906 23.910156 -12.269531 23.140625 -12.6875 C 21.753906 -13.394531 19.722656 -13.925781 17.046875 -14.28125 C 14.378906 -14.644531 12.191406 -15.175781 10.484375 -15.875 C 8.773438 -16.582031 7.382812 -17.425781 6.3125 -18.40625 C 4.320312 -20.25 3.328125 -22.664062 3.328125 -25.65625 C 3.328125 -29.300781 4.726562 -32.164062 7.53125 -34.25 C 10.3125 -36.300781 14.160156 -37.328125 19.078125 -37.328125 C 23.929688 -37.328125 28.078125 -35.953125 31.515625 -33.203125 C 31.347656 -32.585938 31.171875 -32.003906 30.984375 -31.453125 C 30.453125 -29.898438 30.054688 -28.785156 29.796875 -28.109375 L 29 -26.046875 C 28.945312 -25.859375 28.910156 -25.765625 28.890625 -25.765625 C 28.835938 -25.765625 28.648438 -26.007812 28.328125 -26.5 C 26.859375 -28.207031 24.566406 -29.332031 21.453125 -29.875 C 20.492188 -30.0625 19.515625 -30.15625 18.515625 -30.15625 C 14.253906 -30.15625 12.125 -28.867188 12.125 -26.296875 C 12.125 -25.398438 12.570312 -24.722656 13.46875 -24.265625 C 15.125 -23.367188 17.394531 -22.710938 20.28125 -22.296875 C 23.164062 -21.878906 25.351562 -21.3125 26.84375 -20.59375 C 28.34375 -19.882812 29.550781 -19.023438 30.46875 -18.015625 C 32.144531 -16.191406 32.984375 -13.773438 32.984375 -10.765625 C 32.984375 -7.460938 31.664062 -4.785156 29.03125 -2.734375 C 26.269531 -0.554688 22.425781 0.53125 17.5 0.53125 Z M 17.5 0.53125 "/></g></g></g><g clip-path="url(#e5fb8afc22)"><path fill="#ffb923" d="M 88.449219 9.066406 L 33.503906 9.066406 C 27.460938 9.066406 22.511719 14.015625 22.511719 20.054688 L 22.511719 118.957031 C 22.511719 124.996094 27.460938 129.941406 33.503906 129.941406 L 55.769531 129.941406 L 50.132812 124.304688 C 46.496094 120.683594 44.496094 115.847656 44.496094 110.707031 C 44.496094 105.574219 46.496094 100.742188 50.132812 97.113281 C 53.761719 93.480469 58.59375 91.484375 63.726562 91.484375 C 66.625 91.484375 69.425781 92.117188 71.96875 93.324219 L 71.96875 66.757812 C 71.96875 56.15625 80.597656 47.527344 91.199219 47.527344 L 99.433594 47.527344 L 99.433594 20.054688 C 99.4375 14.015625 94.488281 9.066406 88.449219 9.066406 Z M 66.46875 31.046875 L 55.480469 31.046875 C 52.441406 31.046875 49.988281 28.585938 49.988281 25.550781 C 49.988281 22.511719 52.441406 20.054688 55.480469 20.054688 L 66.46875 20.054688 C 69.507812 20.054688 71.964844 22.511719 71.964844 25.550781 C 71.964844 28.585938 69.507812 31.046875 66.46875 31.046875 Z M 66.46875 31.046875 " fill-opacity="1" fill-rule="nonzero"/></g><g clip-path="url(#7d42c13310)"><path fill="#ffb923" d="M 99.441406 89.953125 L 125.898438 97.570312 C 130.269531 98.84375 133.121094 103.507812 132.242188 107.949219 L 125.6875 140.933594 L 82.300781 140.933594 L 57.898438 116.535156 C 54.679688 113.320312 54.679688 108.097656 57.898438 104.878906 C 61.113281 101.667969 66.339844 101.667969 69.554688 104.878906 L 82.957031 118.285156 L 82.957031 66.757812 C 82.957031 62.207031 86.648438 58.515625 91.199219 58.515625 C 95.75 58.515625 99.441406 62.207031 99.441406 66.757812 Z M 99.441406 89.953125 " fill-opacity="1" fill-rule="nonzero"/></g><g clip-path="url(#6d9e88f73a)"><path fill="#ffb923" d="M 107.21875 67.15625 L 108.167969 61.234375 C 109.046875 61.054688 109.90625 60.824219 110.742188 60.546875 L 114.527344 65.199219 C 115.195312 65.320312 115.621094 65.402344 116.289062 65.523438 L 120.375 63.164062 C 120.601562 62.523438 120.75 62.113281 120.976562 61.476562 L 118.835938 55.867188 C 119.5 55.277344 120.128906 54.648438 120.71875 53.984375 L 126.328125 56.125 C 126.964844 55.898438 127.375 55.753906 128.015625 55.523438 L 130.375 51.4375 C 130.25 50.769531 130.171875 50.34375 130.050781 49.675781 L 125.398438 45.894531 C 125.675781 45.054688 125.90625 44.195312 126.085938 43.316406 L 132.007812 42.367188 C 132.449219 41.851562 132.730469 41.519531 133.171875 41.003906 L 133.171875 36.285156 C 132.730469 35.769531 132.449219 35.4375 132.007812 34.921875 L 126.085938 33.96875 C 125.90625 33.09375 125.675781 32.234375 125.398438 31.394531 L 130.050781 27.609375 C 130.171875 26.945312 130.25 26.515625 130.375 25.851562 L 128.015625 21.761719 C 127.375 21.535156 126.964844 21.390625 126.328125 21.164062 L 120.71875 23.300781 C 120.128906 22.640625 119.5 22.011719 118.835938 21.417969 L 120.976562 15.8125 C 120.75 15.171875 120.601562 14.761719 120.375 14.125 L 116.289062 11.765625 C 115.621094 11.886719 115.195312 11.964844 114.527344 12.089844 L 110.742188 16.738281 C 109.90625 16.464844 109.046875 16.230469 108.167969 16.050781 L 107.21875 10.128906 C 106.703125 9.691406 106.371094 9.40625 105.855469 8.96875 L 103.496094 8.96875 L 103.496094 19.378906 C 114.132812 19.378906 122.757812 28.003906 122.757812 38.644531 C 122.757812 49.28125 114.132812 57.90625 103.496094 57.90625 L 103.496094 68.320312 L 105.855469 68.320312 C 106.371094 67.878906 106.703125 67.597656 107.21875 67.15625 " fill-opacity="1" fill-rule="nonzero"/></g><g clip-path="url(#a6321b5f1b)"><g clip-path="url(#efe30db894)"><g clip-path="url(#45a0204032)"><path fill="#ffb923" d="M 117.378906 102.710938 C 117.558594 102.671875 117.804688 102.753906 117.925781 102.894531 L 120.363281 105.757812 C 120.484375 105.898438 120.722656 105.957031 120.890625 105.882812 L 124.175781 104.277344 C 124.335938 104.1875 124.441406 103.964844 124.410156 103.78125 L 123.738281 100.007812 C 123.703125 99.828125 123.792969 99.578125 123.933594 99.457031 L 124.738281 98.726562 C 124.871094 98.597656 125.125 98.535156 125.300781 98.589844 L 128.921875 99.6875 C 129.101562 99.738281 129.332031 99.660156 129.4375 99.507812 L 131.394531 96.347656 C 131.480469 96.183594 131.449219 95.941406 131.324219 95.804688 L 128.738281 93.015625 C 128.613281 92.878906 128.554688 92.625 128.609375 92.445312 L 128.890625 91.453125 C 128.933594 91.273438 129.117188 91.085938 129.296875 91.035156 L 132.96875 89.988281 C 133.144531 89.9375 133.300781 89.746094 133.308594 89.5625 L 133.285156 85.855469 C 133.273438 85.671875 133.117188 85.484375 132.9375 85.4375 L 129.277344 84.496094 C 129.097656 84.449219 128.933594 84.335938 128.914062 84.246094 L 128.890625 84.160156 C 128.769531 83.65625 128.554688 83.007812 128.554688 83.007812 C 128.496094 82.832031 128.550781 82.574219 128.671875 82.433594 L 131.207031 79.558594 C 131.332031 79.417969 131.355469 79.171875 131.265625 79.011719 L 129.316406 75.945312 C 129.207031 75.796875 128.976562 75.722656 128.800781 75.78125 L 125.234375 76.957031 C 125.058594 77.015625 124.804688 76.960938 124.671875 76.832031 L 123.675781 75.953125 C 123.53125 75.832031 123.4375 75.585938 123.464844 75.40625 L 124.042969 71.613281 C 124.070312 71.429688 123.960938 71.207031 123.796875 71.121094 L 120.609375 69.632812 C 120.4375 69.5625 120.203125 69.621094 120.085938 69.765625 L 117.738281 72.671875 C 117.621094 72.816406 117.375 72.90625 117.195312 72.867188 L 115.621094 72.625 C 115.4375 72.601562 115.222656 72.445312 115.148438 72.277344 L 113.589844 68.789062 C 113.515625 68.621094 113.300781 68.492188 113.117188 68.507812 C 113.117188 68.507812 110.785156 68.703125 109.445312 69.035156 L 109.4375 69.035156 C 109.429688 69.039062 109.40625 69.191406 109.386719 69.375 L 108.980469 73.085938 C 108.960938 73.269531 108.804688 73.476562 108.632812 73.546875 L 106.96875 74.292969 C 106.804688 74.378906 106.542969 74.363281 106.386719 74.261719 L 103.210938 72.179688 C 103.054688 72.078125 102.808594 72.089844 102.664062 72.203125 L 100.171875 74.378906 C 100.039062 74.507812 100 74.75 100.082031 74.914062 L 101.753906 78.269531 C 101.835938 78.4375 101.816406 78.695312 101.710938 78.847656 L 100.671875 80.496094 C 100.578125 80.65625 100.351562 80.785156 100.167969 80.785156 L 96.398438 80.75 C 96.214844 80.75 96.015625 80.890625 95.957031 81.066406 L 95.074219 84.226562 C 95.035156 84.40625 95.128906 84.632812 95.289062 84.726562 L 98.53125 86.660156 C 98.691406 86.753906 98.816406 86.984375 98.8125 87.167969 L 98.855469 89.097656 C 98.867188 89.28125 98.75 89.515625 98.59375 89.613281 L 95.429688 91.609375 C 95.273438 91.707031 95.175781 91.9375 95.214844 92.117188 C 95.214844 92.117188 95.234375 92.214844 95.289062 92.429688 C 95.558594 93.53125 96.242188 95.28125 96.242188 95.28125 C 96.308594 95.453125 96.515625 95.589844 96.699219 95.585938 L 100.5 95.457031 C 100.683594 95.449219 100.914062 95.574219 101.015625 95.730469 L 102.019531 97.1875 C 102.132812 97.335938 102.160156 97.59375 102.082031 97.761719 L 100.5 101.144531 C 100.421875 101.3125 100.46875 101.554688 100.609375 101.675781 L 103.269531 103.832031 C 103.421875 103.941406 103.667969 103.945312 103.820312 103.839844 L 106.96875 101.664062 C 107.117188 101.558594 107.382812 101.535156 107.550781 101.613281 L 108.957031 102.191406 C 109.132812 102.257812 109.292969 102.460938 109.320312 102.644531 L 109.820312 106.351562 C 109.84375 106.535156 110.015625 106.710938 110.195312 106.742188 L 113.722656 107.128906 C 113.910156 107.140625 114.117188 107.007812 114.191406 106.835938 L 115.664062 103.292969 C 115.734375 103.125 115.945312 102.960938 116.128906 102.933594 Z M 103.039062 90.46875 C 101.554688 84.425781 105.246094 78.324219 111.289062 76.835938 C 117.332031 75.351562 123.4375 79.042969 124.925781 85.085938 C 126.410156 91.128906 122.714844 97.234375 116.671875 98.71875 C 110.628906 100.207031 104.527344 96.511719 103.039062 90.46875 Z M 103.039062 90.46875 " fill-opacity="1" fill-rule="nonzero"/></g></g></g></svg>