<svg xmlns="http://www.w3.org/2000/svg" xmlns:xlink="http://www.w3.org/1999/xlink" width="720" zoomAndPan="magnify" viewBox="0 0 540 149.999998" height="200" preserveAspectRatio="xMidYMid meet" version="1.0"><defs><g/><clipPath id="275fc6f92f"><path d="M 22.566406 9 L 100 9 L 100 130 L 22.566406 130 Z M 22.566406 9 " clip-rule="nonzero"/></clipPath><clipPath id="ed89205304"><path d="M 55 58 L 133 58 L 133 140.863281 L 55 140.863281 Z M 55 58 " clip-rule="nonzero"/></clipPath><clipPath id="95c654f0cb"><path d="M 103.5625 8.96875 L 133.171875 8.96875 L 133.171875 68.1875 L 103.5625 68.1875 Z M 103.5625 8.96875 " clip-rule="nonzero"/></clipPath><clipPath id="1a7d56e09f"><path d="M 95 68 L 134 68 L 134 108 L 95 108 Z M 95 68 " clip-rule="nonzero"/></clipPath><clipPath id="58efc22a1c"><path d="M 128.046875 64.4375 L 137.234375 101.78125 L 99.894531 110.964844 L 90.707031 73.625 Z M 128.046875 64.4375 " clip-rule="nonzero"/></clipPath><clipPath id="559db009e9"><path d="M 128.046875 64.4375 L 137.234375 101.78125 L 99.894531 110.964844 L 90.707031 73.625 Z M 128.046875 64.4375 " clip-rule="nonzero"/></clipPath></defs><g fill="#ffffff" fill-opacity="1"><g transform="translate(162.905767, 89.336617)"><g><path d="M 32.234375 0.203125 C 30.265625 0.648438 27.992188 0.875 25.421875 0.875 C 22.847656 0.875 20.125 0.3125 17.25 -0.8125 C 14.382812 -1.9375 11.890625 -3.515625 9.765625 -5.546875 C 5.171875 -9.921875 2.875 -15.53125 2.875 -22.375 C 2.875 -29.300781 5.097656 -35.175781 9.546875 -40 C 14.234375 -45.050781 20.207031 -47.578125 27.46875 -47.578125 C 34.0625 -47.578125 39.535156 -45.492188 43.890625 -41.328125 C 48.503906 -36.878906 50.8125 -31.050781 50.8125 -23.84375 C 50.8125 -18.0625 49.175781 -13.003906 45.90625 -8.671875 C 44.875 -7.316406 43.722656 -6.097656 42.453125 -5.015625 C 43.296875 -4.785156 44.316406 -4.398438 45.515625 -3.859375 C 48.066406 -2.671875 50.476562 -2.050781 52.75 -2 L 53.453125 -2 C 54.671875 -2 55.476562 -2.164062 55.875 -2.5 L 56.015625 -2.390625 L 53.34375 4.3125 C 53.019531 5.320312 52.398438 5.828125 51.484375 5.828125 C 50.148438 5.828125 48.789062 5.546875 47.40625 4.984375 C 46.03125 4.421875 44.796875 3.894531 43.703125 3.40625 C 42.617188 2.914062 41.582031 2.484375 40.59375 2.109375 C 39.613281 1.734375 38.675781 1.414062 37.78125 1.15625 C 36.257812 0.738281 34.410156 0.421875 32.234375 0.203125 Z M 12.296875 -22.75 C 12.296875 -20.570312 12.675781 -18.550781 13.4375 -16.6875 C 14.195312 -14.832031 15.242188 -13.226562 16.578125 -11.875 C 19.429688 -8.988281 23.015625 -7.546875 27.328125 -7.546875 C 31.441406 -7.546875 34.800781 -8.941406 37.40625 -11.734375 C 40.09375 -14.585938 41.4375 -18.367188 41.4375 -23.078125 C 41.4375 -27.523438 40.171875 -31.234375 37.640625 -34.203125 C 34.898438 -37.390625 31.273438 -38.984375 26.765625 -38.984375 C 22.359375 -38.984375 18.796875 -37.367188 16.078125 -34.140625 C 13.554688 -31.085938 12.296875 -27.289062 12.296875 -22.75 Z M 12.296875 -22.75 "/></g></g></g><g fill="#ffffff" fill-opacity="1"><g transform="translate(216.799848, 89.336617)"><g><path d="M 27.140625 -3.203125 C 24.148438 -0.710938 20.882812 0.53125 17.34375 0.53125 C 13.550781 0.53125 10.578125 -0.742188 8.421875 -3.296875 C 6.367188 -5.785156 5.34375 -9.191406 5.34375 -13.515625 L 5.34375 -27.46875 C 5.34375 -32.144531 5.238281 -34.828125 5.03125 -35.515625 C 4.832031 -36.210938 4.6875 -36.65625 4.59375 -36.84375 C 5.675781 -36.75 6.800781 -36.703125 7.96875 -36.703125 L 10.890625 -36.703125 C 11.660156 -36.703125 12.675781 -36.734375 13.9375 -36.796875 L 13.9375 -16.46875 C 13.9375 -11.644531 15.25 -8.847656 17.875 -8.078125 C 18.664062 -7.835938 19.53125 -7.71875 20.46875 -7.71875 C 23.238281 -7.71875 25.460938 -8.726562 27.140625 -10.75 L 27.140625 -36.703125 L 35.859375 -36.703125 L 35.859375 -4.5 C 35.859375 -2.4375 35.953125 -0.9375 36.140625 0 L 27.140625 0 Z M 27.140625 -3.203125 "/></g></g></g><g fill="#ffffff" fill-opacity="1"><g transform="translate(258.686262, 89.336617)"><g><path d="M 4.03125 -47.15625 C 5.90625 -50.082031 7.863281 -52.660156 9.90625 -54.890625 L 17.453125 -48.953125 C 16.441406 -47.710938 15.503906 -46.492188 14.640625 -45.296875 C 14.640625 -45.296875 13.738281 -44.019531 11.9375 -41.46875 Z M 13.28125 -3.9375 C 13.28125 -1.914062 13.328125 -0.601562 13.421875 0 L 4.5 0 L 4.5 -36.703125 L 13.28125 -36.703125 Z M 13.28125 -3.9375 "/></g></g></g><g fill="#ffffff" fill-opacity="1"><g transform="translate(276.697778, 89.336617)"><g><path d="M 33.859375 -3.40625 C 31.234375 -0.78125 27.125 0.53125 21.53125 0.53125 C 16.09375 0.53125 11.65625 -1.117188 8.21875 -4.421875 C 4.726562 -7.773438 2.984375 -12.222656 2.984375 -17.765625 C 2.984375 -23.410156 4.703125 -28.046875 8.140625 -31.671875 C 11.796875 -35.492188 16.679688 -37.40625 22.796875 -37.40625 C 27.117188 -37.40625 30.742188 -36.457031 33.671875 -34.5625 L 32.28125 -25.5625 L 32.03125 -25.59375 C 30.90625 -26.957031 29.722656 -27.847656 28.484375 -28.265625 C 26.460938 -28.972656 24.445312 -29.328125 22.4375 -29.328125 C 20.425781 -29.328125 18.847656 -29.066406 17.703125 -28.546875 C 16.554688 -28.035156 15.570312 -27.320312 14.75 -26.40625 C 13.113281 -24.53125 12.296875 -22.050781 12.296875 -18.96875 C 12.296875 -13.488281 14.191406 -9.90625 17.984375 -8.21875 C 19.296875 -7.65625 20.679688 -7.375 22.140625 -7.375 C 23.609375 -7.375 24.882812 -7.5 25.96875 -7.75 C 27.0625 -8.007812 28.050781 -8.363281 28.9375 -8.8125 C 30.832031 -9.75 32.117188 -10.835938 32.796875 -12.078125 L 33.046875 -11.96875 Z M 33.859375 -3.40625 "/></g></g></g><g fill="#ffffff" fill-opacity="1"><g transform="translate(312.720784, 89.336617)"><g><path d="M 14.296875 -4.640625 C 14.296875 -2.617188 14.375 -1.070312 14.53125 0 L 5.6875 0 L 5.6875 -50.21875 L 14.296875 -50.21875 L 14.296875 -19.453125 L 30.34375 -36.703125 L 40.765625 -36.703125 L 26.9375 -22.125 L 34.84375 -11.34375 C 36.550781 -8.625 37.835938 -6.632812 38.703125 -5.375 L 41.015625 -2.109375 C 41.722656 -1.191406 42.3125 -0.488281 42.78125 0 L 37.21875 0 C 35.164062 0 33.398438 0.175781 31.921875 0.53125 L 20.96875 -15.484375 L 14.296875 -8.390625 Z M 14.296875 -4.640625 "/></g></g></g><g fill="#ffffff" fill-opacity="1"><g transform="translate(354.628217, 89.336617)"><g><path d="M 9.453125 0.28125 C 7.429688 0.09375 5.078125 0 2.390625 0 L -0.390625 0 L 14.890625 -42.8125 C 15.566406 -44.726562 15.90625 -45.84375 15.90625 -46.15625 C 15.90625 -46.476562 15.894531 -46.675781 15.875 -46.75 L 15.90625 -46.8125 C 17.425781 -46.738281 19.039062 -46.703125 20.75 -46.703125 C 22.15625 -46.703125 23.84375 -46.726562 25.8125 -46.78125 L 25.84375 -46.703125 C 25.800781 -46.609375 25.78125 -46.484375 25.78125 -46.328125 C 25.78125 -45.878906 26.128906 -44.695312 26.828125 -42.78125 L 42.421875 0.109375 C 41.953125 0.078125 41.398438 0.0625 40.765625 0.0625 C 40.765625 0.0625 40.160156 0.0390625 38.953125 0 C 38.359375 0 37.828125 0 37.359375 0 L 31.921875 0 L 28.625 -10.109375 L 12.75 -10.109375 Z M 25.875 -18.546875 L 20.578125 -34.875 L 15.421875 -18.546875 Z M 25.875 -18.546875 "/></g></g></g><g fill="#ffffff" fill-opacity="1"><g transform="translate(396.655071, 89.336617)"><g><path d="M 14.296875 -0.734375 L 14.296875 9.59375 C 14.296875 11.601562 14.34375 12.910156 14.4375 13.515625 L 5.6875 13.515625 L 5.6875 -36.703125 L 14.296875 -36.703125 L 14.296875 -34.421875 C 17.128906 -36.410156 19.84375 -37.40625 22.4375 -37.40625 C 25.039062 -37.40625 27.347656 -37.039062 29.359375 -36.3125 C 31.367188 -35.582031 33.132812 -34.457031 34.65625 -32.9375 C 38.007812 -29.632812 39.6875 -24.929688 39.6875 -18.828125 C 39.6875 -14.773438 38.738281 -11.15625 36.84375 -7.96875 C 35.226562 -5.28125 32.988281 -3.128906 30.125 -1.515625 C 27.601562 -0.0859375 24.863281 0.625 21.90625 0.625 C 18.957031 0.625 16.421875 0.171875 14.296875 -0.734375 Z M 14.296875 -9.59375 C 16.078125 -8.09375 18.382812 -7.34375 21.21875 -7.34375 C 25.851562 -7.34375 28.847656 -9.578125 30.203125 -14.046875 C 30.671875 -15.566406 30.90625 -17.195312 30.90625 -18.9375 C 30.90625 -20.6875 30.738281 -22.082031 30.40625 -23.125 C 30.082031 -24.164062 29.65625 -25.066406 29.125 -25.828125 C 28.601562 -26.585938 28.015625 -27.21875 27.359375 -27.71875 C 26.703125 -28.226562 26.035156 -28.632812 25.359375 -28.9375 C 24.160156 -29.476562 22.925781 -29.75 21.65625 -29.75 C 20.394531 -29.75 19.085938 -29.453125 17.734375 -28.859375 C 16.378906 -28.273438 15.234375 -27.492188 14.296875 -26.515625 Z M 14.296875 -9.59375 "/></g></g></g><g fill="#ffffff" fill-opacity="1"><g transform="translate(438.541485, 89.336617)"><g><path d="M 14.296875 -0.734375 L 14.296875 9.59375 C 14.296875 11.601562 14.34375 12.910156 14.4375 13.515625 L 5.6875 13.515625 L 5.6875 -36.703125 L 14.296875 -36.703125 L 14.296875 -34.421875 C 17.128906 -36.410156 19.84375 -37.40625 22.4375 -37.40625 C 25.039062 -37.40625 27.347656 -37.039062 29.359375 -36.3125 C 31.367188 -35.582031 33.132812 -34.457031 34.65625 -32.9375 C 38.007812 -29.632812 39.6875 -24.929688 39.6875 -18.828125 C 39.6875 -14.773438 38.738281 -11.15625 36.84375 -7.96875 C 35.226562 -5.28125 32.988281 -3.128906 30.125 -1.515625 C 27.601562 -0.0859375 24.863281 0.625 21.90625 0.625 C 18.957031 0.625 16.421875 0.171875 14.296875 -0.734375 Z M 14.296875 -9.59375 C 16.078125 -8.09375 18.382812 -7.34375 21.21875 -7.34375 C 25.851562 -7.34375 28.847656 -9.578125 30.203125 -14.046875 C 30.671875 -15.566406 30.90625 -17.195312 30.90625 -18.9375 C 30.90625 -20.6875 30.738281 -22.082031 30.40625 -23.125 C 30.082031 -24.164062 29.65625 -25.066406 29.125 -25.828125 C 28.601562 -26.585938 28.015625 -27.21875 27.359375 -27.71875 C 26.703125 -28.226562 26.035156 -28.632812 25.359375 -28.9375 C 24.160156 -29.476562 22.925781 -29.75 21.65625 -29.75 C 20.394531 -29.75 19.085938 -29.453125 17.734375 -28.859375 C 16.378906 -28.273438 15.234375 -27.492188 14.296875 -26.515625 Z M 14.296875 -9.59375 "/></g></g></g><g fill="#ffffff" fill-opacity="1"><g transform="translate(480.427898, 89.336617)"><g><path d="M 17.53125 0.53125 C 10.925781 0.53125 5.945312 -0.675781 2.59375 -3.09375 C 2.644531 -3.789062 2.71875 -4.585938 2.8125 -5.484375 L 3.125 -8 C 3.3125 -9.664062 3.425781 -10.703125 3.46875 -11.109375 C 3.519531 -11.523438 3.554688 -11.75 3.578125 -11.78125 C 3.597656 -11.8125 3.785156 -11.625 4.140625 -11.21875 C 4.492188 -10.8125 5.160156 -10.3125 6.140625 -9.71875 C 7.128906 -9.132812 8.265625 -8.625 9.546875 -8.1875 C 12.335938 -7.226562 15.242188 -6.75 18.265625 -6.75 C 22.316406 -6.75 24.34375 -8.09375 24.34375 -10.78125 C 24.34375 -11.644531 23.953125 -12.289062 23.171875 -12.71875 C 21.796875 -13.414062 19.765625 -13.945312 17.078125 -14.3125 C 14.398438 -14.675781 12.207031 -15.207031 10.5 -15.90625 C 8.789062 -16.613281 7.398438 -17.457031 6.328125 -18.4375 C 4.335938 -20.289062 3.34375 -22.710938 3.34375 -25.703125 C 3.34375 -29.359375 4.742188 -32.226562 7.546875 -34.3125 C 10.335938 -36.375 14.191406 -37.40625 19.109375 -37.40625 C 23.972656 -37.40625 28.128906 -36.019531 31.578125 -33.25 C 31.410156 -32.644531 31.234375 -32.0625 31.046875 -31.5 C 30.503906 -29.957031 30.101562 -28.847656 29.84375 -28.171875 L 29.046875 -26.09375 C 28.992188 -25.90625 28.957031 -25.8125 28.9375 -25.8125 C 28.882812 -25.8125 28.695312 -26.054688 28.375 -26.546875 C 26.894531 -28.253906 24.601562 -29.378906 21.5 -29.921875 C 20.53125 -30.109375 19.546875 -30.203125 18.546875 -30.203125 C 14.285156 -30.203125 12.15625 -28.914062 12.15625 -26.34375 C 12.15625 -25.445312 12.597656 -24.765625 13.484375 -24.296875 C 15.148438 -23.410156 17.425781 -22.753906 20.3125 -22.328125 C 23.207031 -21.910156 25.398438 -21.34375 26.890625 -20.625 C 28.390625 -19.914062 29.597656 -19.054688 30.515625 -18.046875 C 32.203125 -16.222656 33.046875 -13.800781 33.046875 -10.78125 C 33.046875 -7.476562 31.722656 -4.796875 29.078125 -2.734375 C 26.316406 -0.554688 22.46875 0.53125 17.53125 0.53125 Z M 17.53125 0.53125 "/></g></g></g><g clip-path="url(#275fc6f92f)"><path fill="#ffffff" d="M 88.449219 9.066406 L 33.503906 9.066406 C 27.460938 9.066406 22.511719 14.015625 22.511719 20.054688 L 22.511719 118.957031 C 22.511719 124.996094 27.460938 129.941406 33.503906 129.941406 L 55.769531 129.941406 L 50.132812 124.304688 C 46.496094 120.683594 44.496094 115.847656 44.496094 110.707031 C 44.496094 105.574219 46.496094 100.742188 50.132812 97.113281 C 53.761719 93.480469 58.59375 91.484375 63.726562 91.484375 C 66.625 91.484375 69.425781 92.117188 71.96875 93.324219 L 71.96875 66.757812 C 71.96875 56.15625 80.597656 47.527344 91.199219 47.527344 L 99.433594 47.527344 L 99.433594 20.054688 C 99.4375 14.015625 94.488281 9.066406 88.449219 9.066406 Z M 66.46875 31.046875 L 55.480469 31.046875 C 52.441406 31.046875 49.988281 28.585938 49.988281 25.550781 C 49.988281 22.511719 52.441406 20.054688 55.480469 20.054688 L 66.46875 20.054688 C 69.507812 20.054688 71.964844 22.511719 71.964844 25.550781 C 71.964844 28.585938 69.507812 31.046875 66.46875 31.046875 Z M 66.46875 31.046875 " fill-opacity="1" fill-rule="nonzero"/></g><g clip-path="url(#ed89205304)"><path fill="#ffffff" d="M 99.441406 89.953125 L 125.898438 97.570312 C 130.269531 98.84375 133.121094 103.507812 132.242188 107.949219 L 125.6875 140.933594 L 82.300781 140.933594 L 57.898438 116.535156 C 54.679688 113.320312 54.679688 108.097656 57.898438 104.878906 C 61.113281 101.667969 66.339844 101.667969 69.554688 104.878906 L 82.957031 118.285156 L 82.957031 66.757812 C 82.957031 62.207031 86.648438 58.515625 91.199219 58.515625 C 95.75 58.515625 99.441406 62.207031 99.441406 66.757812 Z M 99.441406 89.953125 " fill-opacity="1" fill-rule="nonzero"/></g><g clip-path="url(#95c654f0cb)"><path fill="#ffffff" d="M 107.21875 67.15625 L 108.167969 61.234375 C 109.046875 61.054688 109.90625 60.824219 110.742188 60.546875 L 114.527344 65.199219 C 115.195312 65.320312 115.621094 65.402344 116.289062 65.523438 L 120.375 63.164062 C 120.601562 62.523438 120.75 62.113281 120.976562 61.476562 L 118.835938 55.867188 C 119.5 55.277344 120.128906 54.648438 120.71875 53.984375 L 126.328125 56.125 C 126.964844 55.898438 127.375 55.753906 128.015625 55.523438 L 130.375 51.4375 C 130.25 50.769531 130.171875 50.34375 130.050781 49.675781 L 125.398438 45.894531 C 125.675781 45.054688 125.90625 44.195312 126.085938 43.316406 L 132.007812 42.367188 C 132.449219 41.851562 132.730469 41.519531 133.171875 41.003906 L 133.171875 36.285156 C 132.730469 35.769531 132.449219 35.4375 132.007812 34.921875 L 126.085938 33.96875 C 125.90625 33.09375 125.675781 32.234375 125.398438 31.394531 L 130.050781 27.609375 C 130.171875 26.945312 130.25 26.515625 130.375 25.851562 L 128.015625 21.761719 C 127.375 21.535156 126.964844 21.390625 126.328125 21.164062 L 120.71875 23.300781 C 120.128906 22.640625 119.5 22.011719 118.835938 21.417969 L 120.976562 15.8125 C 120.75 15.171875 120.601562 14.761719 120.375 14.125 L 116.289062 11.765625 C 115.621094 11.886719 115.195312 11.964844 114.527344 12.089844 L 110.742188 16.738281 C 109.90625 16.464844 109.046875 16.230469 108.167969 16.050781 L 107.21875 10.128906 C 106.703125 9.691406 106.371094 9.40625 105.855469 8.96875 L 103.496094 8.96875 L 103.496094 19.378906 C 114.132812 19.378906 122.757812 28.003906 122.757812 38.644531 C 122.757812 49.28125 114.132812 57.90625 103.496094 57.90625 L 103.496094 68.320312 L 105.855469 68.320312 C 106.371094 67.878906 106.703125 67.597656 107.21875 67.15625 " fill-opacity="1" fill-rule="nonzero"/></g><g clip-path="url(#1a7d56e09f)"><g clip-path="url(#58efc22a1c)"><g clip-path="url(#559db009e9)"><path fill="#ffffff" d="M 117.378906 102.710938 C 117.558594 102.671875 117.804688 102.753906 117.925781 102.894531 L 120.363281 105.757812 C 120.484375 105.898438 120.722656 105.957031 120.890625 105.882812 L 124.175781 104.277344 C 124.335938 104.1875 124.441406 103.964844 124.410156 103.78125 L 123.738281 100.007812 C 123.703125 99.828125 123.792969 99.578125 123.933594 99.457031 L 124.738281 98.726562 C 124.871094 98.597656 125.125 98.535156 125.300781 98.589844 L 128.921875 99.6875 C 129.101562 99.738281 129.332031 99.660156 129.4375 99.507812 L 131.394531 96.347656 C 131.480469 96.183594 131.449219 95.941406 131.324219 95.804688 L 128.738281 93.015625 C 128.613281 92.878906 128.554688 92.625 128.609375 92.445312 L 128.890625 91.453125 C 128.933594 91.273438 129.117188 91.085938 129.296875 91.035156 L 132.96875 89.988281 C 133.144531 89.9375 133.300781 89.746094 133.308594 89.5625 L 133.285156 85.855469 C 133.273438 85.671875 133.117188 85.484375 132.9375 85.4375 L 129.277344 84.496094 C 129.097656 84.449219 128.933594 84.335938 128.914062 84.246094 L 128.890625 84.160156 C 128.769531 83.65625 128.554688 83.007812 128.554688 83.007812 C 128.496094 82.832031 128.550781 82.574219 128.671875 82.433594 L 131.207031 79.558594 C 131.332031 79.417969 131.355469 79.171875 131.265625 79.011719 L 129.316406 75.945312 C 129.207031 75.796875 128.976562 75.722656 128.800781 75.78125 L 125.234375 76.957031 C 125.058594 77.015625 124.804688 76.960938 124.671875 76.832031 L 123.675781 75.953125 C 123.53125 75.832031 123.4375 75.585938 123.464844 75.40625 L 124.042969 71.613281 C 124.070312 71.429688 123.960938 71.207031 123.796875 71.121094 L 120.609375 69.632812 C 120.4375 69.5625 120.203125 69.621094 120.085938 69.765625 L 117.738281 72.671875 C 117.621094 72.816406 117.375 72.90625 117.195312 72.867188 L 115.621094 72.625 C 115.4375 72.601562 115.222656 72.445312 115.148438 72.277344 L 113.589844 68.789062 C 113.515625 68.621094 113.300781 68.492188 113.117188 68.507812 C 113.117188 68.507812 110.785156 68.703125 109.445312 69.035156 L 109.4375 69.035156 C 109.429688 69.039062 109.40625 69.191406 109.386719 69.375 L 108.980469 73.085938 C 108.960938 73.269531 108.804688 73.476562 108.632812 73.546875 L 106.96875 74.292969 C 106.804688 74.378906 106.542969 74.363281 106.386719 74.261719 L 103.210938 72.179688 C 103.054688 72.078125 102.808594 72.089844 102.664062 72.203125 L 100.171875 74.378906 C 100.039062 74.507812 100 74.75 100.082031 74.914062 L 101.753906 78.269531 C 101.835938 78.4375 101.816406 78.695312 101.710938 78.847656 L 100.671875 80.496094 C 100.578125 80.65625 100.351562 80.785156 100.167969 80.785156 L 96.398438 80.75 C 96.214844 80.75 96.015625 80.890625 95.957031 81.066406 L 95.074219 84.226562 C 95.035156 84.40625 95.128906 84.632812 95.289062 84.726562 L 98.53125 86.660156 C 98.691406 86.753906 98.816406 86.984375 98.8125 87.167969 L 98.855469 89.097656 C 98.867188 89.28125 98.75 89.515625 98.59375 89.613281 L 95.429688 91.609375 C 95.273438 91.707031 95.175781 91.9375 95.214844 92.117188 C 95.214844 92.117188 95.234375 92.214844 95.289062 92.429688 C 95.558594 93.53125 96.242188 95.28125 96.242188 95.28125 C 96.308594 95.453125 96.515625 95.589844 96.699219 95.585938 L 100.5 95.457031 C 100.683594 95.449219 100.914062 95.574219 101.015625 95.730469 L 102.019531 97.1875 C 102.132812 97.335938 102.160156 97.59375 102.082031 97.761719 L 100.5 101.144531 C 100.421875 101.3125 100.46875 101.554688 100.609375 101.675781 L 103.269531 103.832031 C 103.421875 103.941406 103.667969 103.945312 103.820312 103.839844 L 106.96875 101.664062 C 107.117188 101.558594 107.382812 101.535156 107.550781 101.613281 L 108.957031 102.191406 C 109.132812 102.257812 109.292969 102.460938 109.320312 102.644531 L 109.820312 106.351562 C 109.84375 106.535156 110.015625 106.710938 110.195312 106.742188 L 113.722656 107.128906 C 113.910156 107.140625 114.117188 107.007812 114.191406 106.835938 L 115.664062 103.292969 C 115.734375 103.125 115.945312 102.960938 116.128906 102.933594 Z M 103.039062 90.46875 C 101.554688 84.425781 105.246094 78.324219 111.289062 76.835938 C 117.332031 75.351562 123.4375 79.042969 124.925781 85.085938 C 126.410156 91.128906 122.714844 97.234375 116.671875 98.71875 C 110.628906 100.207031 104.527344 96.511719 103.039062 90.46875 Z M 103.039062 90.46875 " fill-opacity="1" fill-rule="nonzero"/></g></g></g></svg>