<svg xmlns="http://www.w3.org/2000/svg" xmlns:xlink="http://www.w3.org/1999/xlink" width="500" zoomAndPan="magnify" viewBox="0 0 375 374.999991" height="500" preserveAspectRatio="xMidYMid meet" version="1.0"><defs><clipPath id="f9cf24518b"><path d="M 24.65625 0 L 243 0 L 243 344 L 24.65625 344 Z M 24.65625 0 " clip-rule="nonzero"/></clipPath><clipPath id="b2712a28d4"><path d="M 118 140 L 337 140 L 337 374.519531 L 118 374.519531 Z M 118 140 " clip-rule="nonzero"/></clipPath><clipPath id="7780f3c6e8"><path d="M 254.632812 0.00390625 L 338.710938 0.00390625 L 338.710938 168.152344 L 254.632812 168.152344 Z M 254.632812 0.00390625 " clip-rule="nonzero"/></clipPath><clipPath id="a246ff315d"><path d="M 230 169 L 340 169 L 340 279 L 230 279 Z M 230 169 " clip-rule="nonzero"/></clipPath><clipPath id="0aa44f0423"><path d="M 324.167969 157.511719 L 350.25 263.542969 L 244.21875 289.621094 L 218.140625 183.59375 Z M 324.167969 157.511719 " clip-rule="nonzero"/></clipPath><clipPath id="cab19474bf"><path d="M 324.167969 157.511719 L 350.25 263.542969 L 244.21875 289.621094 L 218.140625 183.59375 Z M 324.167969 157.511719 " clip-rule="nonzero"/></clipPath></defs><g clip-path="url(#f9cf24518b)"><path fill="#ffb923" d="M 211.722656 0.28125 L 55.707031 0.28125 C 38.546875 0.28125 24.496094 14.332031 24.496094 31.480469 L 24.496094 312.3125 C 24.496094 329.464844 38.546875 343.511719 55.707031 343.511719 L 118.933594 343.511719 L 102.921875 327.5 C 92.601562 317.214844 86.925781 303.488281 86.925781 288.890625 C 86.925781 274.3125 92.601562 260.597656 102.921875 250.285156 C 113.234375 239.972656 126.945312 234.304688 141.527344 234.304688 C 149.753906 234.304688 157.707031 236.101562 164.929688 239.527344 L 164.929688 164.097656 C 164.929688 133.992188 189.429688 109.496094 219.535156 109.496094 L 242.917969 109.496094 L 242.917969 31.480469 C 242.921875 14.332031 228.875 0.28125 211.722656 0.28125 Z M 149.308594 62.691406 L 118.109375 62.691406 C 109.484375 62.691406 102.511719 55.707031 102.511719 47.085938 C 102.511719 38.464844 109.484375 31.480469 118.109375 31.480469 L 149.308594 31.480469 C 157.933594 31.480469 164.914062 38.464844 164.914062 47.085938 C 164.914062 55.707031 157.933594 62.691406 149.308594 62.691406 Z M 149.308594 62.691406 " fill-opacity="1" fill-rule="nonzero"/></g><g clip-path="url(#b2712a28d4)"><path fill="#ffb923" d="M 242.941406 229.960938 L 318.066406 251.59375 C 330.46875 255.199219 338.574219 268.445312 336.078125 281.058594 L 317.457031 374.714844 L 194.265625 374.714844 L 124.980469 305.4375 C 115.839844 296.3125 115.839844 281.484375 124.980469 272.34375 C 134.109375 263.222656 148.945312 263.222656 158.070312 272.34375 L 196.132812 310.40625 L 196.132812 164.097656 C 196.132812 151.179688 206.613281 140.695312 219.535156 140.695312 C 232.453125 140.695312 242.9375 151.179688 242.9375 164.097656 L 242.9375 229.960938 Z M 242.941406 229.960938 " fill-opacity="1" fill-rule="nonzero"/></g><g clip-path="url(#7780f3c6e8)"><path fill="#ffb923" d="M 265.019531 165.230469 L 267.71875 148.417969 C 270.210938 147.902344 272.652344 147.25 275.03125 146.460938 L 285.773438 159.667969 C 287.667969 160.019531 288.882812 160.242188 290.777344 160.589844 L 302.382812 153.890625 C 303.027344 152.074219 303.441406 150.910156 304.085938 149.097656 L 298.011719 133.175781 C 299.894531 131.496094 301.675781 129.710938 303.355469 127.832031 L 319.277344 133.902344 C 321.09375 133.257812 322.257812 132.84375 324.070312 132.199219 L 330.769531 120.59375 C 330.421875 118.703125 330.199219 117.488281 329.851562 115.59375 L 316.640625 104.851562 C 317.429688 102.46875 318.085938 100.03125 318.597656 97.539062 L 335.410156 94.835938 C 336.660156 93.371094 337.460938 92.433594 338.710938 90.964844 L 338.710938 77.566406 C 337.460938 76.101562 336.660156 75.160156 335.410156 73.695312 L 318.597656 70.992188 C 318.085938 68.503906 317.429688 66.0625 316.640625 63.683594 L 329.851562 52.9375 C 330.199219 51.046875 330.421875 49.832031 330.769531 47.9375 L 324.070312 36.332031 C 322.257812 35.6875 321.09375 35.273438 319.277344 34.628906 L 303.355469 40.703125 C 301.675781 38.820312 299.894531 37.035156 298.011719 35.359375 L 304.085938 19.433594 C 303.441406 17.621094 303.027344 16.457031 302.382812 14.640625 L 290.777344 7.941406 C 288.882812 8.289062 287.667969 8.515625 285.773438 8.863281 L 275.03125 22.070312 C 272.652344 21.285156 270.210938 20.628906 267.71875 20.117188 L 265.019531 3.300781 C 263.550781 2.050781 262.613281 1.25 261.148438 0.00390625 L 254.445312 0.00390625 L 254.445312 29.570312 C 284.65625 29.570312 309.144531 54.058594 309.144531 84.265625 C 309.144531 114.472656 284.65625 138.964844 254.445312 138.964844 L 254.445312 168.53125 L 261.148438 168.53125 C 262.613281 167.28125 263.550781 166.480469 265.019531 165.230469 " fill-opacity="1" fill-rule="nonzero"/></g><g clip-path="url(#a246ff315d)"><g clip-path="url(#0aa44f0423)"><g clip-path="url(#cab19474bf)"><path fill="#ffb923" d="M 293.867188 266.179688 C 294.382812 266.070312 295.082031 266.308594 295.421875 266.710938 L 302.34375 274.839844 C 302.6875 275.238281 303.359375 275.398438 303.84375 275.195312 L 313.171875 270.632812 C 313.628906 270.375 313.925781 269.742188 313.835938 269.222656 L 311.925781 258.511719 C 311.832031 257.996094 312.082031 257.292969 312.480469 256.949219 L 314.765625 254.867188 C 315.140625 254.5 315.863281 254.328125 316.367188 254.480469 L 326.652344 257.59375 C 327.15625 257.75 327.8125 257.519531 328.113281 257.089844 L 333.664062 248.117188 C 333.914062 247.65625 333.828125 246.960938 333.46875 246.574219 L 326.125 238.65625 C 325.765625 238.269531 325.601562 237.542969 325.757812 237.042969 L 326.558594 234.214844 C 326.683594 233.707031 327.203125 233.171875 327.710938 233.027344 L 338.132812 230.0625 C 338.640625 229.917969 339.074219 229.371094 339.101562 228.847656 L 339.035156 218.328125 C 339.003906 217.800781 338.5625 217.265625 338.050781 217.136719 L 327.652344 214.460938 C 327.144531 214.328125 326.679688 214.011719 326.621094 213.75 L 326.5625 213.515625 C 326.210938 212.082031 325.605469 210.234375 325.605469 210.234375 C 325.441406 209.734375 325.59375 209.003906 325.941406 208.609375 L 333.140625 200.441406 C 333.488281 200.046875 333.5625 199.351562 333.304688 198.890625 L 327.769531 190.191406 C 327.460938 189.761719 326.800781 189.546875 326.304688 189.714844 L 316.179688 193.0625 C 315.683594 193.226562 314.960938 193.066406 314.578125 192.707031 L 311.746094 190.203125 C 311.34375 189.867188 311.074219 189.167969 311.15625 188.648438 L 312.796875 177.882812 C 312.875 177.363281 312.5625 176.734375 312.097656 176.488281 L 303.046875 172.253906 C 302.5625 172.058594 301.890625 172.230469 301.5625 172.640625 L 294.886719 180.890625 C 294.558594 181.296875 293.863281 181.550781 293.347656 181.449219 L 288.875 180.753906 C 288.351562 180.691406 287.75 180.246094 287.535156 179.769531 L 283.113281 169.863281 C 282.898438 169.382812 282.296875 169.023438 281.773438 169.070312 C 281.773438 169.070312 275.148438 169.621094 271.34375 170.558594 L 271.324219 170.5625 C 271.300781 170.570312 271.234375 171.003906 271.179688 171.523438 L 270.023438 182.066406 C 269.96875 182.589844 269.519531 183.179688 269.035156 183.375 L 264.3125 185.496094 C 263.84375 185.734375 263.097656 185.691406 262.660156 185.402344 L 253.636719 179.496094 C 253.199219 179.207031 252.5 179.238281 252.085938 179.5625 L 245.015625 185.734375 C 244.636719 186.101562 244.519531 186.785156 244.753906 187.253906 L 249.503906 196.789062 C 249.738281 197.257812 249.683594 197.996094 249.386719 198.429688 L 246.433594 203.101562 C 246.171875 203.558594 245.527344 203.925781 245 203.921875 L 234.300781 203.832031 C 233.773438 203.824219 233.207031 204.230469 233.039062 204.726562 L 230.539062 213.699219 C 230.421875 214.210938 230.699219 214.851562 231.148438 215.121094 L 240.355469 220.605469 C 240.804688 220.875 241.164062 221.523438 241.15625 222.050781 L 241.277344 227.53125 C 241.3125 228.054688 240.976562 228.714844 240.53125 228.992188 L 231.542969 234.664062 C 231.097656 234.941406 230.824219 235.59375 230.933594 236.105469 C 230.933594 236.105469 230.996094 236.382812 231.144531 236.988281 C 231.914062 240.121094 233.847656 245.089844 233.847656 245.089844 C 234.039062 245.582031 234.625 245.96875 235.152344 245.949219 L 245.9375 245.585938 C 246.464844 245.566406 247.125 245.914062 247.40625 246.359375 L 250.261719 250.503906 C 250.578125 250.925781 250.65625 251.660156 250.433594 252.136719 L 245.945312 261.742188 C 245.722656 262.21875 245.859375 262.898438 246.25 263.25 L 253.8125 269.371094 C 254.238281 269.679688 254.9375 269.6875 255.371094 269.390625 L 264.304688 263.210938 C 264.738281 262.910156 265.484375 262.84375 265.960938 263.0625 L 269.960938 264.714844 C 270.453125 264.898438 270.914062 265.472656 270.984375 265.996094 L 272.40625 276.527344 C 272.476562 277.046875 272.957031 277.542969 273.476562 277.628906 L 283.492188 278.730469 C 284.019531 278.761719 284.613281 278.386719 284.816406 277.902344 L 289.003906 267.839844 C 289.207031 267.355469 289.796875 266.894531 290.316406 266.820312 Z M 253.15625 231.429688 C 248.933594 214.269531 259.421875 196.9375 276.582031 192.714844 C 293.742188 188.492188 311.074219 198.984375 315.296875 216.140625 C 319.515625 233.300781 309.027344 250.632812 291.867188 254.855469 C 274.707031 259.074219 257.375 248.585938 253.15625 231.429688 Z M 253.15625 231.429688 " fill-opacity="1" fill-rule="nonzero"/></g></g></g></svg>